<svg id="comment_1_" data-name="comment (1)" xmlns="http://www.w3.org/2000/svg" width="47.613" height="36.365" viewBox="0 0 47.613 36.365">
  <path id="Path_39" data-name="Path 39" d="M0,39.948v-23.3A13.083,13.083,0,0,1,13.068,3.583H34.542A13.085,13.085,0,0,1,47.613,16.651v4.018A13.083,13.083,0,0,1,34.546,33.737H13.371ZM13.068,6.5A10.166,10.166,0,0,0,2.913,16.651V35.382l9.815-4.56H34.546A10.166,10.166,0,0,0,44.7,20.667V16.649A10.167,10.167,0,0,0,34.542,6.495H13.068Zm.961,9.933a2.77,2.77,0,1,1-2.77,2.77A2.77,2.77,0,0,1,14.028,16.429Zm19.555,0a2.77,2.77,0,1,1-2.77,2.77A2.77,2.77,0,0,1,33.583,16.429Zm-9.779,0a2.77,2.77,0,1,1-2.77,2.77A2.77,2.77,0,0,1,23.8,16.429Z" transform="translate(0 -3.583)" fill="#010002"/>
</svg>
