<svg xmlns="http://www.w3.org/2000/svg" width="68.55" height="69.899" viewBox="0 0 68.55 69.899">
  <g id="surface1" transform="translate(-0.399 0)">
    <path id="Path_46" data-name="Path 46" d="M36.039,18.234a17.419,17.419,0,1,0,17.416,17.42v-.006A17.451,17.451,0,0,0,36.039,18.234Zm0,32.963A15.549,15.549,0,1,1,51.588,35.648,15.551,15.551,0,0,1,36.039,51.2Zm0,0" transform="translate(-9.111 -9.117)"/>
    <path id="Path_47" data-name="Path 47" d="M49,41.176A26.509,26.509,0,1,0,39.766,49.7l18.34,18.236A6.283,6.283,0,0,0,67.229,59.3c-.079-.082-.159-.164-.243-.243ZM26.932,51.147A24.629,24.629,0,1,1,51.555,26.512v.02A24.65,24.65,0,0,1,26.928,51.158ZM65.67,66.6a4.419,4.419,0,0,1-6.23,0l-18.031-17.9a26.673,26.673,0,0,0,6.482-6L65.667,60.377a4.415,4.415,0,0,1,0,6.238Zm0,0" transform="translate(0 0)"/>
  </g>
</svg>
