<svg id="like" xmlns="http://www.w3.org/2000/svg" width="46.994" height="45.036" viewBox="0 0 46.994 45.036">
  <g id="Group_77" data-name="Group 77" transform="translate(0 0)">
    <g id="Group_76" data-name="Group 76">
      <path id="Path_31" data-name="Path 31" d="M46.994,37.591a4.35,4.35,0,0,0-1.275-3.082,4.862,4.862,0,0,0,1.253-3.738,5.061,5.061,0,0,0-5.107-4.439h-12.1A28.153,28.153,0,0,0,31.329,18.5c0-4.247-3.609-7.832-5.874-7.832a6.15,6.15,0,0,0-3.548,1.192.98.98,0,0,0-.368.766v6.64L15.9,31.481l-.233.119v-.374a.979.979,0,0,0-.979-.979H4.9a4.9,4.9,0,0,0-4.9,4.9V50.808a4.9,4.9,0,0,0,4.9,4.9h5.874a4.906,4.906,0,0,0,4.607-3.237,12.764,12.764,0,0,0,5.183,1.279H38.533a4.5,4.5,0,0,0,4.437-3.419,4.42,4.42,0,0,0-.352-2.943,4.389,4.389,0,0,0,1.96-5.874A4.388,4.388,0,0,0,46.994,37.591Zm-4.13,2.416a.979.979,0,0,0-.56,1.686,2.426,2.426,0,0,1-1.4,4.188.979.979,0,0,0-.56,1.686,2.421,2.421,0,0,1,.709,2.336,2.533,2.533,0,0,1-2.524,1.884H20.56c-1.59,0-4.257-.746-5.181-1.672a.98.98,0,0,0-1.672.693,2.941,2.941,0,0,1-2.937,2.937H4.9a2.941,2.941,0,0,1-2.937-2.937V35.143A2.941,2.941,0,0,1,4.9,32.206h8.811v.979a.983.983,0,0,0,.466.834,1,1,0,0,0,.952.041l1.958-.979a.978.978,0,0,0,.45-.464l5.874-12.728a1,1,0,0,0,.09-.411V13.156a4.129,4.129,0,0,1,1.958-.531c1.073,0,3.916,2.667,3.916,5.874,0,3.446-1.876,8.414-1.893,8.463a.977.977,0,0,0,.914,1.328H41.866a3.091,3.091,0,0,1,3.156,2.661,2.925,2.925,0,0,1-1.394,2.771.98.98,0,0,0,.067,1.705,2.424,2.424,0,0,1-.83,4.58Z" transform="translate(0 -10.667)"/>
    </g>
  </g>
  <g id="Group_79" data-name="Group 79" transform="translate(13.707 21.539)">
    <g id="Group_78" data-name="Group 78">
      <path id="Path_32" data-name="Path 32" d="M150.312,245.333a.979.979,0,0,0-.979.979v17.623a.979.979,0,0,0,1.958,0V246.312A.979.979,0,0,0,150.312,245.333Z" transform="translate(-149.333 -245.333)"/>
    </g>
  </g>
</svg>
