<svg id="outline" xmlns="http://www.w3.org/2000/svg" width="46.971" height="40.425" viewBox="0 0 46.971 40.425">
  <path id="Path_36" data-name="Path 36" d="M126.762,16.326a.9.9,0,0,0-.985-.278L80.612,31.4a.9.9,0,0,0-.345,1.5l6.792,6.727L91.782,55.1a.9.9,0,0,0,1.587.276l.012-.015,3.964-5.55,6.408,6.347a.9.9,0,0,0,.636.261.885.885,0,0,0,.125-.009.9.9,0,0,0,.662-.452l21.679-38.618A.9.9,0,0,0,126.762,16.326Zm-8.952,4.339L88,38.017l-5.425-5.373Zm.238,1.952L93.025,44.164a.9.9,0,0,0-.31.6l-.531,5.473L88.929,39.567ZM93.87,51.573l.46-4.744,1.715,1.7Zm10.311,2.471L94.944,44.9l27.822-23.958Z" transform="translate(-80 -16)"/>
</svg>
